<?xml version="1.0" encoding="UTF-8"?>
<svg xmlns="http://www.w3.org/2000/svg" xmlns:xlink="http://www.w3.org/1999/xlink" width="144pt" height="144pt" viewBox="0 0 144 144" version="1.1">
<g id="surface1">
<path style=" stroke:none;fill-rule:nonzero;fill:rgb(100%,100%,100%);fill-opacity:1;" d="M 73.734375 129.601562 C 83.707031 129.601562 93.371094 128.855469 93.785156 128.835938 L 96.152344 128.660156 L 96.945312 126.382812 C 97.097656 125.953125 100.652344 116.125 112.996094 114.34375 C 122.683594 112.953125 127.148438 111.078125 128.4375 107.851562 C 128.890625 106.695312 128.84375 105.609375 128.546875 104.730469 C 128.074219 100.914062 124.496094 81.46875 101.097656 58.621094 C 100.449219 56.074219 98.636719 50.289062 94.753906 46.75 C 94.59375 41.980469 93.464844 29.925781 86.648438 24.230469 C 85.003906 22.855469 83.027344 22.132812 80.925781 22.132812 C 73.96875 22.132812 66.96875 30.078125 63.898438 34.070312 C 61.828125 33.785156 58.746094 33.394531 56.273438 33.226562 C 54.371094 28.164062 49.019531 17.625 36.804688 14.867188 L 34.738281 14.398438 L 33.300781 15.972656 C 32.964844 16.351562 30.117188 19.738281 32.195312 25.359375 C 33.234375 28.179688 36.15625 35.660156 37.546875 39.191406 C 35.304688 42.265625 32.589844 46.414062 31.582031 49.628906 C 27.96875 52.21875 23.609375 57.121094 24.585938 62.816406 L 21.378906 64.796875 C 18.84375 65.773438 15.21875 69.546875 16.695312 75.253906 C 15.722656 78.148438 13.957031 84.992188 16.625 90.890625 C 18.226562 94.410156 21.210938 96.996094 25.261719 98.335938 C 25.507812 98.496094 31.582031 101.320312 36.832031 101.320312 C 37.386719 101.320312 37.925781 101.285156 38.4375 101.226562 C 43.199219 105.691406 48.800781 110.445312 53.167969 112.753906 C 52.410156 115.902344 51.9375 120.488281 54.128906 124.144531 C 55.390625 126.207031 57.984375 128.792969 63.292969 129.222656 C 66.496094 129.503906 70.125 129.601562 73.734375 129.601562 Z "/>
<path style=" stroke:none;fill-rule:nonzero;fill:rgb(0%,0%,0%);fill-opacity:1;" d="M 124.992188 105.652344 C 124.992188 105.652344 123.425781 85.117188 97.804688 60.472656 C 97.804688 60.472656 96.050781 51.671875 91.15625 48.542969 C 91.15625 48.542969 91.351562 32.898438 84.316406 27.027344 C 77.28125 21.160156 65.535156 37.980469 65.535156 37.980469 C 65.535156 37.980469 56.535156 36.613281 53.605469 36.808594 C 53.605469 36.808594 49.882812 21.550781 36.003906 18.421875 C 36.003906 18.421875 34.242188 20.378906 35.609375 24.09375 C 36.980469 27.808594 41.675781 39.738281 41.675781 39.738281 C 41.675781 39.738281 34.832031 48.730469 34.832031 51.863281 C 34.832031 51.863281 25.246094 57.535156 28.960938 64.382812 L 23.289062 67.90625 C 23.289062 67.90625 18.402344 69.859375 20.550781 75.34375 C 20.550781 75.34375 14.089844 90.796875 26.417969 94.90625 C 26.417969 94.90625 35.019531 99.011719 39.519531 97.25 C 39.519531 97.25 53.613281 110.753906 57.714844 110.546875 C 57.714844 110.546875 51.65625 124.625 63.582031 125.601562 C 75.511719 126.585938 93.5 125.207031 93.5 125.207031 C 93.5 125.207031 97.609375 112.886719 112.472656 110.738281 C 127.335938 108.589844 124.992188 105.652344 124.992188 105.652344 Z "/>
<path style=" stroke:none;fill-rule:nonzero;fill:rgb(100%,100%,100%);fill-opacity:1;" d="M 62.019531 103.898438 L 61.820312 107.03125 C 61.820312 107.03125 103.871094 117.792969 100.355469 70.0625 L 97.617188 68.890625 C 97.609375 68.882812 105.824219 109.761719 62.019531 103.898438 Z M 22.113281 87.855469 L 22.113281 89.027344 L 23.484375 89.804688 L 24.855469 88.4375 C 24.855469 88.4375 25.828125 94.890625 43.816406 93.136719 L 43.816406 90.988281 C 43.816406 90.988281 25.828125 92.550781 26.027344 84.527344 L 26.027344 80.617188 L 23.871094 80.425781 C 23.871094 80.425781 24.855469 87.855469 22.113281 87.855469 Z M 30.132812 71.816406 L 24.65625 70.253906 C 24.65625 70.253906 20.746094 75.925781 24.261719 75.925781 C 27.78125 75.925781 29.742188 75.730469 30.132812 71.816406 Z M 35.609375 58.707031 L 35.21875 54.609375 C 35.21875 54.609375 29.152344 58.714844 31.304688 62.042969 C 31.304688 62.035156 35.609375 61.0625 35.609375 58.707031 Z M 44.210938 62.816406 L 48.515625 69.859375 C 48.515625 69.859375 59.28125 69.664062 60.453125 65.359375 C 60.453125 65.359375 60.261719 57.921875 51.84375 57.921875 C 43.425781 57.921875 44.210938 62.816406 44.210938 62.816406 Z M 82.941406 63.40625 C 82.941406 63.40625 87.011719 46.335938 82.164062 34.070312 C 78.839844 25.660156 65.339844 44.046875 64.558594 45.417969 C 64.558594 45.417969 75.90625 42.089844 77.472656 46.007812 C 79.03125 49.910156 82.546875 46.582031 82.941406 63.40625 Z "/>
</g>
</svg>
