<?xml version="1.0" encoding="UTF-8"?>
<svg xmlns="http://www.w3.org/2000/svg" xmlns:xlink="http://www.w3.org/1999/xlink" width="144pt" height="144pt" viewBox="0 0 144 144" version="1.1">
<g id="surface1">
<path style=" stroke:none;fill-rule:nonzero;fill:rgb(100%,100%,100%);fill-opacity:1;" d="M 87.382812 144 C 93.136719 144 96.328125 138.894531 98.691406 135.148438 C 99.410156 133.988281 100.226562 132.667969 100.796875 132.132812 C 103.867188 129.050781 119.472656 117.863281 129.207031 111.097656 L 132.039062 109.136719 L 130.886719 105.875 C 130.847656 105.746094 126.484375 93.085938 126.972656 74.347656 C 129.75 70.265625 136.273438 57.664062 130.789062 34.835938 C 131.933594 28.644531 134.726562 8.460938 123.410156 3.273438 L 122.515625 2.863281 L 121.035156 2.753906 C 119.378906 2.753906 117.816406 3.457031 116.617188 4.761719 C 115.6875 5.761719 114.777344 7.257812 114.199219 10.132812 C 113.746094 7.667969 112.894531 5.320312 111.390625 3.511719 C 109.496094 1.207031 106.886719 0 103.820312 0 C 99.035156 -0.015625 97.195312 4.417969 96.59375 18.496094 L 85.796875 18.496094 C 85.71875 18.496094 85.628906 18.496094 85.535156 18.496094 C 81.53125 18.496094 73.542969 18.945312 68.3125 22.433594 C 64.316406 25.097656 58.921875 28.402344 56.648438 29.796875 L 30.824219 29.507812 C 23.277344 30.195312 11.28125 34.277344 11.097656 45.273438 C 10.9375 55.269531 12.570312 61.664062 16.25 65.394531 C 17.1875 66.371094 18.265625 67.128906 19.460938 67.691406 C 19.394531 68.171875 19.394531 68.691406 19.445312 69.21875 C 19.585938 71.410156 20.644531 74.589844 24.757812 77.324219 C 26.71875 78.628906 29.078125 79.285156 31.800781 79.285156 C 38.21875 79.285156 45.878906 75.621094 52.046875 72.652344 C 53.792969 71.828125 55.394531 71.066406 56.753906 70.46875 L 57.410156 70.484375 C 59.332031 74.085938 63.246094 80.183594 68.941406 82.777344 C 66.40625 92.539062 62.269531 115.195312 72.878906 132.132812 C 78.019531 140.335938 82.5 144 87.382812 144 Z "/>
<path style=" stroke:none;fill-rule:nonzero;fill:rgb(0.784314%,0%,0%);fill-opacity:1;" d="M 126.636719 107.394531 C 126.636719 107.394531 121.699219 93.507812 122.484375 72.773438 C 122.484375 72.773438 132.855469 61.449219 126.15625 34.972656 C 126.15625 34.972656 130.933594 11.675781 121.523438 7.378906 C 121.523438 7.378906 116.585938 4.515625 118.5 27.632812 C 118.5 27.632812 115.472656 22.6875 109.40625 22.367188 C 109.40625 22.367188 112.910156 4.503906 103.820312 4.503906 C 103.820312 4.503906 101.417969 3.386719 100.957031 23.007812 L 85.796875 23.007812 C 85.796875 23.007812 76.066406 22.679688 70.800781 26.195312 C 65.542969 29.707031 57.882812 34.332031 57.882812 34.332031 L 30.769531 34.011719 C 30.769531 34.011719 15.769531 35.453125 15.609375 45.335938 C 15.449219 55.222656 17.042969 65.441406 25.980469 64.160156 C 25.980469 64.160156 20.5625 69.105469 27.253906 73.574219 C 33.953125 78.039062 48.632812 68.792969 55.96875 65.914062 L 60.277344 66.074219 C 60.277344 66.074219 66.015625 79.632812 74.625 79.472656 C 74.625 79.472656 64.09375 109.617188 76.691406 129.714844 C 89.292969 149.816406 93.121094 133.371094 97.585938 128.90625 C 102.050781 124.441406 126.636719 107.394531 126.636719 107.394531 Z "/>
<path style=" stroke:none;fill-rule:nonzero;fill:rgb(100%,100%,100%);fill-opacity:1;" d="M 120.890625 11.195312 L 121.210938 15.03125 C 125.492188 30.101562 115.464844 36.246094 115.464844 36.246094 L 116.097656 37.199219 C 129.496094 27.945312 120.890625 11.195312 120.890625 11.195312 Z M 67.773438 63.039062 L 62.1875 63.039062 L 63.78125 65.113281 L 67.132812 65.113281 C 67.132812 65.113281 89.628906 99.902344 119.136719 76.925781 L 117.539062 75.011719 C 117.539062 75.011719 94.410156 94.789062 67.773438 63.039062 Z M 84.84375 43.90625 C 87.710938 48.210938 84.515625 53.15625 95.359375 51.402344 C 106.207031 49.652344 101.417969 38.328125 95.527344 38.480469 C 89.628906 38.640625 81.980469 39.597656 84.84375 43.90625 Z M 19.753906 45.65625 C 19.753906 45.65625 21.523438 45.816406 21.363281 49.652344 C 20.898438 60.488281 24.382812 55.390625 24.863281 49.652344 C 25.34375 43.90625 31.878906 46.457031 31.878906 46.457031 C 26.308594 36.558594 19.921875 44.066406 19.921875 44.066406 Z M 43.523438 60.863281 C 36.835938 62.808594 27.421875 63.785156 27.421875 63.785156 L 27.421875 65.242188 C 27.96875 65.402344 44.078125 62.488281 44.078125 62.488281 Z M 105.316406 22.480469 C 106.734375 13.308594 103.195312 8.089844 103.195312 8.089844 L 102.636719 11.195312 C 104.050781 11.765625 103.621094 22.769531 103.621094 22.769531 Z "/>
</g>
</svg>
