<?xml version="1.0" encoding="UTF-8"?>
<svg xmlns="http://www.w3.org/2000/svg" xmlns:xlink="http://www.w3.org/1999/xlink" width="144pt" height="144pt" viewBox="0 0 144 144" version="1.1">
<g id="surface1">
<path style=" stroke:none;fill-rule:nonzero;fill:rgb(100%,100%,100%);fill-opacity:1;" d="M 90.789062 133.597656 C 97.960938 132.332031 99.632812 130.792969 102.453125 127.695312 C 104.457031 125.5 107.46875 122.210938 116.027344 116.652344 C 135.9375 103.695312 140.09375 92.597656 134.453125 67.179688 L 134.28125 66.363281 L 133.726562 65.722656 C 133.089844 64.910156 118.234375 46.785156 99.765625 42.007812 L 97.207031 33.65625 C 97.082031 33.097656 92.632812 15.09375 80.75 11.003906 C 79.0625 10.433594 77.472656 10.261719 76.046875 10.515625 C 74.085938 10.859375 72.425781 11.941406 71.246094 13.679688 C 68.628906 17.457031 68.769531 23.964844 69.214844 28.175781 L 61.460938 29.382812 C 57.382812 24.988281 44.929688 12.863281 32.78125 14.5 L 29.804688 14.902344 L 29.671875 17.902344 C 29.660156 18.738281 29.675781 26.28125 38.980469 40.199219 C 38.082031 41.808594 37.121094 44.195312 36.769531 47.183594 L 36.226562 52.304688 C 34.710938 53.738281 32.347656 56.449219 31.855469 59.726562 C 26.265625 63.324219 22.429688 66.175781 20.371094 68.21875 C 19.1875 68.269531 17.546875 68.390625 15.910156 68.679688 C 7.859375 70.097656 7.746094 74.507812 8.070312 76.335938 C 8.464844 78.582031 8.832031 80.242188 9.101562 81.324219 C 7.863281 83.671875 6.015625 88.34375 7.707031 92.921875 C 9.019531 96.464844 12.011719 98.976562 16.625 100.453125 C 18.640625 102.394531 24.042969 106.324219 33.664062 104.625 C 43.914062 102.820312 59.625 100.585938 59.636719 100.582031 C 60.78125 100.453125 71.558594 99.574219 74.171875 111.035156 L 76.941406 125.316406 C 76.660156 127.070312 76.925781 129.375 78.515625 131.203125 C 80.8125 133.871094 84.816406 134.648438 90.789062 133.597656 Z "/>
<path style=" stroke:none;fill-rule:nonzero;fill:rgb(0.392157%,0.392157%,0.392157%);fill-opacity:1;" d="M 130.960938 67.949219 C 130.960938 67.949219 115.335938 48.671875 96.910156 45.023438 L 93.785156 34.695312 C 93.785156 34.695312 89.761719 17.882812 79.574219 14.375 C 69.386719 10.871094 73.261719 31.144531 73.261719 31.144531 L 60.078125 33.207031 C 60.078125 33.207031 45.960938 16.320312 33.253906 18.03125 C 33.253906 18.03125 32.980469 25.511719 43.257812 40.148438 C 43.257812 40.148438 40.84375 42.964844 40.316406 47.570312 C 39.800781 52.175781 39.613281 54.0625 39.613281 54.0625 C 39.613281 54.0625 34.703125 57.855469 35.382812 61.710938 C 35.382812 61.710938 23.207031 69.433594 22.027344 71.765625 C 22.027344 71.765625 10.851562 71.613281 11.578125 75.730469 C 12.304688 79.847656 12.925781 81.859375 12.925781 81.859375 C 12.925781 81.859375 4.90625 93.632812 18.558594 97.332031 C 18.558594 97.332031 22.738281 102.960938 33.03125 101.144531 C 43.320312 99.332031 59.113281 97.070312 59.113281 97.070312 C 59.113281 97.070312 74.179688 95.195312 77.613281 110.257812 L 80.542969 125.398438 C 80.542969 125.398438 78.296875 132.175781 90.128906 130.089844 C 101.984375 128 95 126.058594 114.039062 113.65625 C 133.105469 101.269531 136.121094 91.183594 130.960938 67.949219 Z "/>
<path style=" stroke:none;fill-rule:nonzero;fill:rgb(100%,100%,100%);fill-opacity:1;" d="M 77.230469 92.808594 L 67.578125 93.722656 L 70.691406 96.351562 C 70.691406 96.351562 73.195312 94.050781 77.976562 95.597656 C 82.757812 97.128906 101.417969 99.15625 108.285156 83.871094 C 115.140625 68.609375 106.074219 54.816406 106.074219 54.816406 L 102.316406 53.089844 C 102.316406 53.089844 113.546875 68.628906 106.40625 80.769531 C 99.277344 92.914062 87.230469 96.890625 77.230469 92.808594 Z M 83.757812 56.09375 L 95.53125 50.570312 L 95.167969 48.511719 L 85.960938 53.589844 C 85.960938 53.589844 83.46875 25.902344 79.703125 22.582031 C 75.945312 19.261719 76.183594 31.164062 76.722656 40.355469 L 82.449219 45.71875 Z M 50.34375 35.183594 C 49.015625 30.636719 37.285156 21.296875 37.285156 21.296875 C 38.40625 30.652344 45.816406 38.105469 45.816406 38.105469 Z M 48.234375 57.851562 C 48.234375 57.851562 50.417969 70.199219 61.699219 63.4375 C 61.699219 63.4375 54.433594 49.332031 48.234375 57.851562 Z M 37.953125 61.816406 L 41.167969 56.832031 C 36.324219 57.996094 37.953125 61.816406 37.953125 61.816406 Z M 23.71875 73.757812 C 15.621094 73.113281 13.398438 75.574219 13.398438 75.574219 C 14.273438 82.222656 16.773438 82.964844 16.773438 82.964844 C 16.417969 80.953125 21.019531 78.671875 22.789062 76.882812 C 24.539062 75.082031 23.71875 73.757812 23.71875 73.757812 Z M 18.578125 88.5625 L 17.84375 94.761719 C 17.84375 94.761719 19.042969 96.375 21.992188 95.855469 C 21.992188 95.855469 29.066406 97.96875 33.328125 96.296875 C 33.320312 96.292969 20.394531 98.863281 18.578125 88.5625 Z "/>
</g>
</svg>
