<?xml version="1.0" encoding="UTF-8"?>
<svg xmlns="http://www.w3.org/2000/svg" xmlns:xlink="http://www.w3.org/1999/xlink" width="144pt" height="144pt" viewBox="0 0 144 144" version="1.1">
<g id="surface1">
<path style=" stroke:none;fill-rule:nonzero;fill:rgb(100%,100%,100%);fill-opacity:1;" d="M 57.726562 144 C 68.269531 144 76.808594 137.898438 92.078125 126.1875 C 95.152344 125.132812 102.195312 123.039062 106.046875 123.039062 C 106.226562 123.039062 106.375 123.039062 106.503906 123.054688 L 106.988281 123.578125 C 107.003906 123.609375 108.933594 125.785156 108.933594 128.992188 C 108.933594 134.324219 112.402344 136.753906 115.84375 136.753906 C 116.957031 136.753906 117.816406 136.5 118.0625 136.433594 L 118.640625 136.261719 L 119.15625 135.910156 C 120.238281 135.144531 145.425781 117.191406 142.613281 86.457031 C 140.25 60.675781 123.417969 51.074219 113.351562 51.074219 C 111.511719 51.074219 109.859375 51.386719 108.453125 51.984375 C 105.820312 51.289062 100.683594 50.070312 96.757812 50.070312 C 95.988281 50.070312 94.214844 50.070312 92.535156 50.765625 C 90.761719 50.339844 87.964844 49.792969 85.886719 49.792969 C 85.773438 49.792969 85.675781 49.792969 85.585938 49.792969 C 83.6875 47.417969 80.359375 44.066406 75.589844 42.121094 C 80.046875 32.28125 82.871094 16.667969 70.488281 6.917969 C 64.738281 2.386719 58.269531 0 51.765625 0 C 39.933594 0 30.59375 7.777344 28.316406 19.210938 C 26.445312 20.0625 24.203125 21.558594 23.328125 24.109375 C 22.757812 25.796875 22.59375 28.453125 25.113281 31.503906 C 28.007812 35.003906 30.257812 36.941406 33.003906 37.898438 C 30.011719 41.851562 27.261719 46.09375 25.570312 50.167969 C 20.105469 63.382812 18.121094 86.449219 29.980469 96.933594 C 26.101562 96.679688 18.683594 94.300781 8.476562 82.472656 L 3.398438 76.574219 L 1.664062 84.183594 C 1.542969 84.648438 -1.042969 96.464844 6.832031 106.320312 C 13.292969 114.417969 24.582031 118.636719 40.375 118.84375 C 41.078125 119.359375 41.984375 120.027344 42.835938 120.632812 C 43.472656 127.25 46.132812 143.796875 57.246094 144 Z "/>
<path style=" stroke:none;fill-rule:nonzero;fill:rgb(0%,0%,0%);fill-opacity:1;" d="M 116.898438 132.679688 C 116.898438 132.679688 141.328125 115.636719 138.695312 86.824219 C 136.054688 58.003906 114.09375 52.023438 109 56.242188 C 109 56.242188 95.464844 52.203125 93.175781 55.015625 C 93.175781 55.015625 84.210938 52.554688 84.039062 54.492188 C 84.039062 54.492188 79.285156 45.882812 69.800781 44.65625 C 69.800781 44.65625 83.6875 22.335938 68.050781 10.035156 C 52.402344 -2.273438 33.601562 5.273438 31.84375 22.148438 C 31.84375 22.148438 23.941406 23.90625 28.164062 29 C 32.382812 34.097656 34.304688 34.1875 39.046875 34.1875 C 39.046875 34.1875 44.324219 30.210938 43.628906 28.101562 C 42.925781 26 43.449219 24.609375 45.378906 23.726562 C 47.308594 22.851562 50.472656 23.90625 50.472656 24.609375 C 50.472656 24.609375 34.3125 39.363281 29.21875 51.671875 C 24.121094 63.980469 22.019531 87.332031 34.492188 95.425781 L 35.710938 99.820312 C 35.710938 99.820312 24.292969 106.84375 5.5 85.039062 C 5.5 85.039062 -1.355469 114.925781 41.699219 114.925781 C 41.699219 114.925781 45.214844 117.558594 46.621094 118.441406 C 46.621094 118.441406 47.839844 139.878906 57.335938 140.058594 C 66.832031 140.238281 75.089844 134.257812 90.207031 122.664062 C 90.207031 122.664062 109.1875 116.003906 109.882812 120.902344 C 109.882812 120.902344 112.867188 124.070312 112.867188 128.984375 C 112.867188 133.898438 116.898438 132.679688 116.898438 132.679688 Z "/>
<path style=" stroke:none;fill-rule:nonzero;fill:rgb(100%,100%,100%);fill-opacity:1;" d="M 106.007812 67.660156 C 103.894531 66.253906 107.945312 59.753906 107.945312 59.753906 L 106.710938 58.699219 C 101.269531 68.011719 104.953125 69.941406 104.953125 69.941406 C 104.953125 69.941406 116.023438 73.984375 116.207031 86.988281 C 116.375 100 108.640625 106.320312 108.640625 106.320312 L 108.289062 113.527344 L 110.398438 113.527344 L 110.570312 107.203125 C 129.902344 82.25 106.007812 67.660156 106.007812 67.660156 Z M 67.175781 48.6875 C 67.175781 48.6875 65.757812 52.554688 65.757812 55.890625 C 65.757812 59.230469 68.230469 66.082031 70.855469 59.230469 C 73.488281 52.382812 80 55.539062 80 55.539062 C 72.277344 43.945312 67.175781 48.6875 67.175781 48.6875 Z M 87.375 81.015625 C 87.546875 83.308594 95.464844 79.960938 96.347656 79.4375 C 97.230469 78.914062 100.566406 79.4375 95.996094 72.757812 C 91.414062 66.074219 85.101562 74.164062 85.101562 74.164062 C 87.914062 74.695312 87.203125 78.734375 87.375 81.015625 Z M 104.078125 91.035156 C 104.078125 104.5625 93.527344 101.40625 93.527344 101.40625 L 90.722656 100.351562 L 93.003906 103.335938 L 95.285156 103.335938 C 107.945312 102.984375 106.179688 91.035156 106.179688 90.511719 Z M 82.109375 97.472656 C 79.875 97.472656 77.609375 98.511719 75.386719 100.589844 C 70.660156 104.980469 65.734375 107.222656 60.761719 107.203125 C 48.0625 107.171875 42.769531 98.558594 38.796875 92.761719 C 38.253906 91.976562 37.601562 91.4375 37.144531 90.988281 C 37.070312 91.589844 37.683594 97.921875 40.953125 104.578125 C 43.667969 110.109375 50.007812 119.390625 61.925781 119.390625 L 62.734375 119.375 C 81.929688 118.703125 89.117188 108.449219 91.171875 104.539062 L 88.609375 99.597656 C 87.480469 98.414062 85.542969 97.472656 82.109375 97.472656 Z M 53.820312 123.015625 C 53.820312 123.015625 55.21875 128.984375 58.210938 132.148438 C 61.203125 135.3125 65.578125 123.367188 65.578125 123.367188 C 59.429688 126 53.820312 123.015625 53.820312 123.015625 Z M 61.375 63.089844 C 62.773438 63.089844 74.550781 70.988281 77.546875 76.796875 L 79.65625 75.742188 C 79.65625 75.742188 69.464844 65.019531 65.425781 63.089844 C 61.382812 61.160156 60.84375 60.636719 61.546875 53.601562 C 62.25 46.578125 75.082031 26.539062 70.683594 22.148438 L 68.925781 23.726562 C 68.925781 23.726562 71.902344 24.78125 63.476562 40.949219 C 55.046875 57.117188 59.976562 63.089844 61.375 63.089844 Z M 52.332031 22.050781 C 53.230469 23.300781 54.425781 19.539062 54.425781 19.539062 C 54.425781 19.539062 44.160156 13.042969 40.390625 23.511719 L 34.949219 21.207031 L 34.117188 22.464844 C 34.117188 22.464844 37.878906 24.976562 40.601562 24.976562 C 40.601562 24.976562 46.148438 13.445312 52.332031 22.050781 Z "/>
</g>
</svg>
