<?xml version="1.0" encoding="UTF-8"?>
<svg xmlns="http://www.w3.org/2000/svg" xmlns:xlink="http://www.w3.org/1999/xlink" width="144pt" height="144pt" viewBox="0 0 144 144" version="1.1">
<g id="surface1">
<path style=" stroke:none;fill-rule:nonzero;fill:rgb(100%,100%,100%);fill-opacity:1;" d="M 92.34375 132.882812 C 95.699219 131.664062 98.289062 129.703125 100.015625 127.042969 C 103.410156 121.867188 109.726562 112.210938 118.128906 107.625 L 118.71875 107.410156 C 120.773438 106.664062 126.222656 105.117188 131.941406 107.101562 L 137.308594 108.949219 L 136.96875 103.285156 L 136.796875 100.304688 L 140.558594 97.984375 L 143.566406 96.140625 L 141.925781 93.007812 C 141.75 92.652344 138.007812 85.652344 130.070312 83.046875 L 132.019531 74.304688 L 132.601562 71.730469 L 130.402344 70.300781 L 123.117188 65.546875 L 124.015625 64.0625 L 124.925781 62.578125 L 124.386719 60.910156 C 124.25 60.492188 120.984375 50.921875 105.578125 44.875 L 108.824219 44.058594 L 106.722656 39.230469 C 104.644531 36.1875 100.03125 31.894531 94.367188 32.007812 L 92.503906 29.199219 C 90.671875 26.535156 85.621094 22.28125 79.078125 23.976562 C 78.238281 23.636719 77.277344 23.417969 76.261719 23.417969 C 72.292969 18.1875 63.820312 8.414062 56.195312 9.308594 L 55.75 9.367188 L 55.042969 9.578125 C 52.953125 10.335938 51.777344 11.960938 51.511719 14.421875 C 48.328125 13.101562 44.503906 12.378906 40.65625 13.78125 L 38.503906 14.5625 L 38.183594 16.808594 C 38.007812 18.191406 37.71875 25.21875 50.019531 32.9375 L 50.097656 33.222656 C 48.699219 34.347656 47.386719 35.664062 46.558594 37.09375 C 42.355469 39.003906 31.1875 45.304688 24.242188 60.390625 C 23.449219 60.871094 21.851562 61.742188 19.214844 62.703125 L 17.984375 63.132812 C 17.957031 63.144531 17.929688 63.15625 17.898438 63.164062 C 12.683594 65.066406 3.507812 69.90625 1.039062 76.378906 C 0.0390625 78.972656 0.175781 81.59375 1.433594 83.953125 L 2.882812 86.789062 C 5.796875 92.574219 9.28125 99.511719 14.605469 101.359375 C 14.828125 104.039062 15.679688 107.449219 18.300781 109.503906 C 19.945312 110.789062 22.835938 111.988281 27.277344 110.371094 C 35.484375 107.0625 46.820312 102.492188 45.488281 92.558594 L 50.0625 89.882812 C 56.351562 90.179688 63.496094 92.023438 64.375 94.441406 C 65.042969 96.277344 66.097656 98.574219 67.265625 101.09375 C 69.519531 105.988281 73.71875 115.0625 72.445312 118.0625 C 69.738281 124.429688 71.9375 130.054688 78.34375 133.105469 C 81.246094 134.453125 87.257812 134.738281 92.34375 132.882812 Z "/>
<path style=" stroke:none;fill-rule:nonzero;fill:rgb(0.784314%,0%,0%);fill-opacity:1;" d="M 116.3125 104.300781 C 116.3125 104.300781 124.394531 100.46875 133.1875 103.515625 L 132.882812 98.269531 L 138.578125 94.757812 C 138.578125 94.757812 134.421875 86.804688 125.523438 85.925781 L 128.320312 73.472656 L 117.980469 66.6875 L 120.78125 62.09375 C 120.78125 62.09375 117.875 53.136719 102.324219 47.722656 C 102.324219 47.722656 97.046875 43.035156 103.585938 41.371094 C 103.585938 41.371094 98.21875 33.496094 91.449219 36.5 C 91.449219 36.5 84.535156 32.230469 89.398438 31.355469 C 89.398438 31.355469 85.25 25.359375 78.734375 28.085938 C 78.734375 28.085938 76.71875 26.488281 74.632812 27.609375 C 74.632812 27.609375 63.847656 12.238281 56.652344 13.074219 C 56.652344 13.074219 53.414062 13 56.804688 22.308594 C 56.804688 22.308594 49.0625 14.765625 41.957031 17.351562 C 41.957031 17.351562 41.113281 23.371094 53.363281 30.527344 L 54.386719 34.800781 C 54.386719 34.800781 49.632812 37.953125 49.472656 39.980469 C 49.472656 39.980469 35.167969 44.839844 27.265625 62.90625 C 27.265625 62.90625 25.085938 64.769531 19.183594 66.734375 C 13.277344 68.699219 1.367188 75.722656 4.78125 82.160156 C 8.199219 88.601562 12.371094 99.066406 18.394531 97.941406 C 18.394531 97.941406 17.035156 110.410156 26.386719 106.644531 C 35.742188 102.875 44.195312 99.089844 41.148438 90.722656 L 49.089844 86.039062 C 49.089844 86.039062 65.46875 86.335938 67.9375 93.125 C 70.410156 99.917969 78.539062 113.398438 75.941406 119.527344 C 73.34375 125.652344 77.398438 128.453125 79.984375 129.660156 C 82.570312 130.863281 92.71875 131.277344 96.859375 124.953125 C 100.996094 118.628906 107.359375 109.171875 116.3125 104.300781 Z "/>
<path style=" stroke:none;fill-rule:nonzero;fill:rgb(100%,100%,100%);fill-opacity:1;" d="M 55.355469 78.222656 L 54.335938 79.855469 C 54.335938 79.855469 64.449219 92.425781 83.695312 81.492188 C 102.941406 70.554688 99.082031 55.519531 99.082031 55.519531 L 106.414062 68.769531 L 108.261719 68.449219 C 108.261719 68.449219 96.820312 42.40625 87.085938 40.234375 C 87.085938 40.234375 102.015625 51.78125 95.578125 65.027344 C 89.140625 78.273438 70.925781 92.039062 55.355469 78.222656 Z M 24.960938 77.738281 C 24.664062 73.59375 17.421875 77.035156 17.421875 77.035156 C 12.648438 80.597656 15.480469 87.25 18.492188 87.167969 C 21.5 87.09375 25.25 81.871094 24.960938 77.738281 Z M 67.910156 45.957031 C 60.710938 48.746094 56.371094 56.953125 56.371094 56.953125 C 57.34375 59.632812 66.425781 59.546875 69.707031 53.347656 C 72.988281 47.152344 67.910156 45.957031 67.910156 45.957031 Z M 43.644531 19.042969 L 58.226562 31.613281 L 56.183594 26.632812 Z M 62.425781 27.9375 L 70.070312 29.796875 C 70.070312 29.796875 61.1875 15.703125 58.664062 16.621094 Z M 20.421875 96.484375 L 20.578125 98.574219 C 20.578125 98.574219 28.324219 98.789062 36.398438 90.488281 L 34.703125 88.605469 C 34.703125 88.605469 28.660156 95.277344 20.421875 96.484375 Z M 126.972656 97.730469 C 123.15625 86.25 104.441406 53.03125 104.441406 53.03125 C 111.660156 66.480469 124.757812 98.539062 124.757812 98.539062 Z "/>
</g>
</svg>
