<?xml version="1.0" encoding="UTF-8"?>
<svg xmlns="http://www.w3.org/2000/svg" xmlns:xlink="http://www.w3.org/1999/xlink" width="144pt" height="144pt" viewBox="0 0 144 144" version="1.1">
<g id="surface1">
<path style=" stroke:none;fill-rule:nonzero;fill:rgb(100%,100%,100%);fill-opacity:1;" d="M 79.273438 144 C 85.316406 144 91.207031 141.507812 95.425781 137.160156 C 97.925781 134.609375 100.066406 131.855469 102.085938 129.28125 C 105.535156 124.824219 108.519531 120.976562 111.453125 120.976562 L 112.71875 112.605469 C 111.65625 112.335938 110.292969 111.675781 109.980469 111.273438 C 110.136719 111.273438 110.277344 110.421875 110.421875 109.402344 C 111.222656 103.460938 112.71875 92.402344 105.183594 85.820312 C 100.035156 81.324219 96.085938 76.921875 94.445312 75.007812 C 93.960938 67.988281 91.492188 37.246094 84.105469 12.996094 C 81.480469 4.371094 79.363281 0 75.148438 0 L 73.191406 0 L 71.296875 1.816406 C 66.964844 6.859375 69.058594 28.886719 69.089844 29.097656 C 69.402344 31.15625 70.078125 34.597656 70.976562 39.09375 C 72.472656 46.515625 74.664062 57.261719 76.609375 69.472656 C 72.230469 55.660156 57.785156 13.804688 41.300781 4.894531 L 38.03125 3.128906 L 35.816406 6.128906 C 33.59375 9.203125 28.785156 23.261719 59.109375 76.109375 C 50.242188 81.613281 31.523438 94.550781 31.296875 105.707031 C 31.183594 110.871094 32.472656 114.835938 35.089844 117.527344 C 37.1875 119.675781 39.585938 120.402344 41.242188 120.648438 C 43.65625 122.75 49.105469 126.8125 54.992188 126.8125 C 55.023438 126.8125 55.054688 126.8125 55.089844 126.8125 C 58.425781 126.8125 61.414062 127.875 64.464844 135.34375 C 66.621094 140.671875 72.300781 144 79.273438 144 Z "/>
<path style=" stroke:none;fill-rule:nonzero;fill:rgb(0%,0%,0%);fill-opacity:1;" d="M 111.714844 116.734375 C 111.714844 116.734375 105.894531 115.34375 105.894531 111.835938 C 105.894531 108.347656 109.621094 95.300781 102.398438 89.007812 C 95.171875 82.714844 90.285156 76.675781 90.285156 76.675781 C 90.285156 76.675781 88.183594 41.015625 80.035156 14.230469 C 71.878906 -12.5625 72.34375 22.386719 73.273438 28.445312 C 74.214844 34.5 78.398438 52.433594 81.660156 74.328125 L 73.742188 74.566406 C 73.742188 74.566406 56.96875 18.195312 39.257812 8.640625 C 39.257812 8.640625 31.109375 19.828125 64.890625 77.597656 C 64.890625 77.597656 35.765625 94.378906 35.53125 105.789062 C 35.292969 117.199219 42.976562 116.503906 42.976562 116.503906 C 42.976562 116.503906 49.277344 122.804688 55.335938 122.5625 C 61.390625 122.339844 65.347656 126.28125 68.386719 133.742188 C 71.402344 141.195312 84.683594 142.121094 92.375 134.207031 C 100.066406 126.28125 104.269531 116.496094 111.714844 116.734375 Z "/>
<path style=" stroke:none;fill-rule:nonzero;fill:rgb(100%,100%,100%);fill-opacity:1;" d="M 71.6875 122.398438 C 73.046875 123.148438 74.183594 123.976562 74.902344 124.882812 C 78.628906 129.542969 73.03125 130.242188 79.101562 131.871094 C 85.160156 133.503906 97.035156 116.96875 97.035156 116.96875 L 94.476562 116.265625 C 94.476562 116.265625 79.101562 136.300781 77.703125 128.378906 C 77.101562 124.929688 75.230469 122.421875 72.785156 120.609375 C 66.457031 115.867188 66.082031 119.355469 71.6875 122.398438 Z M 61.160156 97.15625 C 62.324219 98.554688 64.890625 100.425781 68.617188 99.496094 C 72.34375 98.554688 72.113281 94.828125 72.113281 94.828125 C 72.113281 94.828125 70.714844 90.40625 66.285156 90.644531 C 61.855469 90.878906 59.992188 95.761719 61.160156 97.15625 Z M 38.808594 102.984375 C 38.808594 104.15625 39.496094 106.730469 39.496094 106.730469 C 39.496094 106.730469 41.121094 111.835938 43.925781 106.007812 C 43.925781 106.007812 47.871094 104.613281 46.484375 102.757812 C 45.09375 100.902344 38.808594 101.824219 38.808594 102.984375 Z M 43.222656 110.90625 L 45.035156 113.699219 L 44.789062 115.671875 L 46.269531 115.574219 C 46.269531 114.394531 56.039062 115.34375 56.039062 115.34375 C 55.40625 115.359375 55.203125 114.191406 54.625 114.207031 C 45.460938 114.476562 44.398438 110.210938 44.398438 110.210938 Z M 66.523438 73.304688 L 68.148438 75.734375 C 68.148438 75.734375 72.820312 75.824219 68.003906 68.996094 C 68 68.992188 57.507812 51.515625 66.523438 73.304688 Z "/>
</g>
</svg>
