<?xml version="1.0" encoding="UTF-8"?>
<svg xmlns="http://www.w3.org/2000/svg" xmlns:xlink="http://www.w3.org/1999/xlink" width="144pt" height="144pt" viewBox="0 0 144 144" version="1.1">
<g id="surface1">
<path style=" stroke:none;fill-rule:nonzero;fill:rgb(0%,0%,0%);fill-opacity:1;" d="M 70.261719 129.601562 C 60.292969 129.601562 50.628906 128.855469 50.210938 128.835938 L 47.84375 128.660156 L 47.042969 126.375 C 46.890625 125.945312 43.335938 116.121094 30.992188 114.335938 C 21.308594 112.945312 16.84375 111.074219 15.554688 107.847656 C 15.101562 106.6875 15.144531 105.601562 15.445312 104.722656 C 15.925781 100.90625 19.492188 81.460938 42.894531 58.621094 C 43.542969 56.074219 45.355469 50.289062 49.238281 46.75 C 49.398438 41.980469 50.527344 29.925781 57.34375 24.230469 C 58.996094 22.855469 60.96875 22.132812 63.066406 22.132812 C 70.023438 22.132812 77.019531 30.078125 80.09375 34.070312 C 82.164062 33.785156 85.25 33.394531 87.726562 33.234375 C 89.628906 28.164062 94.980469 17.625 107.195312 14.875 L 109.261719 14.398438 L 110.6875 15.972656 C 111.03125 16.34375 113.878906 19.738281 111.796875 25.359375 C 110.753906 28.179688 107.835938 35.660156 106.441406 39.191406 C 108.695312 42.265625 111.410156 46.414062 112.40625 49.628906 C 116.019531 52.21875 120.382812 57.121094 119.40625 62.816406 L 122.609375 64.796875 C 125.144531 65.773438 128.773438 69.546875 127.292969 75.261719 C 128.269531 78.152344 130.03125 85 127.367188 90.898438 C 125.765625 94.417969 122.777344 97.003906 118.730469 98.34375 C 118.480469 98.503906 112.40625 101.328125 107.15625 101.328125 C 106.605469 101.328125 106.066406 101.292969 105.554688 101.234375 C 100.792969 105.699219 95.191406 110.453125 90.820312 112.761719 C 91.578125 115.910156 92.050781 120.496094 89.859375 124.152344 C 88.601562 126.214844 86.007812 128.800781 80.699219 129.230469 C 77.5 129.503906 73.875 129.601562 70.261719 129.601562 Z "/>
<path style=" stroke:none;fill-rule:nonzero;fill:rgb(100%,100%,100%);fill-opacity:1;" d="M 19.003906 105.652344 C 19.003906 105.652344 20.570312 85.117188 46.191406 60.472656 C 46.191406 60.472656 47.949219 51.671875 52.839844 48.542969 C 52.839844 48.542969 52.644531 32.898438 59.679688 27.027344 C 66.714844 21.160156 78.457031 37.980469 78.457031 37.980469 C 78.457031 37.980469 87.464844 36.613281 90.390625 36.808594 C 90.390625 36.808594 94.113281 21.550781 107.996094 18.421875 C 107.996094 18.421875 109.757812 20.378906 108.386719 24.09375 C 107.019531 27.808594 102.320312 39.738281 102.320312 39.738281 C 102.320312 39.738281 109.167969 48.730469 109.167969 51.863281 C 109.167969 51.863281 118.75 57.535156 115.035156 64.382812 L 120.703125 67.898438 C 120.703125 67.898438 125.589844 69.851562 123.441406 75.335938 C 123.441406 75.335938 129.902344 90.789062 117.570312 94.898438 C 117.570312 94.898438 108.96875 99.003906 104.46875 97.242188 C 104.46875 97.242188 90.378906 110.746094 86.277344 110.539062 C 86.277344 110.539062 92.335938 124.617188 80.40625 125.59375 C 68.476562 126.578125 50.488281 125.199219 50.488281 125.199219 C 50.488281 125.199219 46.382812 112.878906 31.515625 110.730469 C 16.652344 108.582031 19.003906 105.652344 19.003906 105.652344 Z "/>
<path style=" stroke:none;fill-rule:nonzero;fill:rgb(0%,0%,0%);fill-opacity:1;" d="M 46.382812 68.882812 L 43.644531 70.054688 C 40.125 117.789062 82.175781 107.023438 82.175781 107.023438 L 81.980469 103.890625 C 38.167969 109.761719 46.382812 68.882812 46.382812 68.882812 Z M 120.121094 80.425781 L 117.964844 80.617188 L 117.964844 84.527344 C 118.152344 92.550781 100.171875 90.988281 100.171875 90.988281 L 100.171875 93.136719 C 118.167969 94.890625 119.136719 88.4375 119.136719 88.4375 L 120.507812 89.804688 L 121.875 89.027344 L 121.875 87.855469 C 119.144531 87.855469 120.121094 80.425781 120.121094 80.425781 Z M 120.230469 69.640625 L 119.777344 69 L 119.027344 69.210938 L 113.558594 70.769531 L 112.675781 71.023438 L 112.765625 71.925781 C 113.273438 77.019531 116.558594 77.019531 119.734375 77.019531 C 121.167969 77.019531 121.789062 76.269531 122.015625 75.816406 C 123.019531 73.921875 120.90625 70.601562 120.230469 69.640625 Z M 112.457031 63.101562 L 113.214844 63.269531 L 113.625 62.621094 C 115.78125 59.292969 111.972656 55.445312 109.394531 53.707031 L 107.871094 52.671875 L 107.6875 54.5 L 107.296875 58.707031 C 107.289062 61.839844 111.933594 62.984375 112.457031 63.101562 Z M 92.148438 57.929688 C 83.734375 57.929688 83.539062 65.367188 83.539062 65.367188 C 84.710938 69.667969 95.476562 69.867188 95.476562 69.867188 L 99.78125 62.824219 C 99.78125 62.816406 100.566406 57.929688 92.148438 57.929688 Z M 62.140625 63.429688 C 62.425781 51.828125 64.179688 50.269531 65.585938 49.007812 C 66.257812 48.410156 67.007812 47.75 67.554688 46.402344 C 67.96875 45.335938 70.023438 45.183594 71.214844 45.183594 C 74.734375 45.183594 79.097656 46.445312 79.132812 46.460938 L 81.710938 47.210938 L 80.394531 44.878906 C 80.3125 44.742188 70.722656 30.785156 64.582031 30.785156 C 63.378906 30.785156 61.761719 31.28125 60.824219 33.664062 C 55.894531 46.101562 59.820312 62.941406 59.984375 63.652344 Z "/>
</g>
</svg>
