<?xml version="1.0" encoding="UTF-8"?>
<svg xmlns="http://www.w3.org/2000/svg" xmlns:xlink="http://www.w3.org/1999/xlink" width="144pt" height="144pt" viewBox="0 0 144 144" version="1.1">
<g id="surface1">
<path style=" stroke:none;fill-rule:nonzero;fill:rgb(0%,0%,0%);fill-opacity:1;" d="M 56.621094 144 C 50.867188 144 47.667969 138.894531 45.3125 135.148438 C 44.59375 133.988281 43.777344 132.667969 43.207031 132.132812 C 40.144531 129.050781 24.53125 117.863281 14.796875 111.097656 L 11.964844 109.136719 L 13.117188 105.875 C 13.148438 105.746094 17.519531 93.085938 17.03125 74.347656 C 14.253906 70.265625 7.722656 57.664062 13.214844 34.835938 C 12.078125 28.636719 9.277344 8.453125 20.59375 3.265625 L 21.488281 2.855469 L 22.960938 2.746094 C 24.625 2.746094 26.179688 3.449219 27.378906 4.753906 C 28.308594 5.753906 29.21875 7.25 29.796875 10.125 C 30.25 7.660156 31.101562 5.3125 32.605469 3.503906 C 34.5 1.207031 37.117188 0 40.175781 0 C 44.960938 -0.015625 46.808594 4.417969 47.402344 18.496094 L 58.199219 18.496094 C 58.277344 18.496094 58.367188 18.496094 58.460938 18.496094 C 62.464844 18.496094 70.453125 18.945312 75.683594 22.433594 C 79.679688 25.097656 85.074219 28.402344 87.347656 29.796875 L 113.171875 29.507812 C 120.71875 30.195312 132.714844 34.277344 132.898438 45.273438 C 133.058594 55.269531 131.425781 61.664062 127.746094 65.394531 C 126.808594 66.371094 125.730469 67.128906 124.535156 67.691406 C 124.609375 68.179688 124.609375 68.699219 124.550781 69.226562 C 124.410156 71.417969 123.359375 74.597656 119.246094 77.335938 C 117.285156 78.636719 114.925781 79.292969 112.203125 79.292969 C 105.785156 79.292969 98.125 75.628906 91.957031 72.660156 C 90.21875 71.828125 88.617188 71.058594 87.257812 70.460938 L 86.601562 70.484375 C 84.679688 74.085938 80.765625 80.183594 75.070312 82.777344 C 77.605469 92.539062 81.742188 115.195312 71.132812 132.132812 C 65.984375 140.335938 61.503906 144 56.621094 144 Z "/>
<path style=" stroke:none;fill-rule:nonzero;fill:rgb(100%,100%,100%);fill-opacity:1;" d="M 17.367188 107.394531 C 17.367188 107.394531 22.304688 93.507812 21.511719 72.773438 C 21.511719 72.773438 11.140625 61.449219 17.847656 34.972656 C 17.847656 34.972656 13.070312 11.675781 22.480469 7.378906 C 22.480469 7.378906 27.417969 4.515625 25.507812 27.632812 C 25.507812 27.632812 28.53125 22.6875 34.597656 22.367188 C 34.597656 22.367188 31.09375 4.503906 40.183594 4.503906 C 40.183594 4.503906 42.585938 3.386719 43.058594 23.007812 L 58.214844 23.007812 C 58.214844 23.007812 67.9375 22.679688 73.210938 26.195312 C 78.460938 29.707031 86.121094 34.332031 86.121094 34.332031 L 113.234375 34.011719 C 113.234375 34.011719 128.234375 35.453125 128.394531 45.335938 C 128.554688 55.222656 126.960938 65.441406 118.023438 64.160156 C 118.023438 64.160156 123.441406 69.105469 116.75 73.574219 C 110.050781 78.039062 95.375 68.792969 88.035156 65.914062 L 83.730469 66.074219 C 83.730469 66.074219 77.992188 79.632812 69.378906 79.472656 C 69.378906 79.472656 79.910156 109.617188 67.304688 129.714844 C 54.703125 149.808594 50.882812 133.371094 46.410156 128.90625 C 41.9375 124.441406 17.367188 107.394531 17.367188 107.394531 Z "/>
<path style=" stroke:none;fill-rule:nonzero;fill:rgb(0%,0%,0%);fill-opacity:1;" d="M 27.898438 37.199219 L 28.53125 36.246094 C 28.53125 36.246094 18.503906 30.101562 22.792969 15.03125 L 23.113281 11.195312 C 23.105469 11.195312 14.5 27.945312 27.898438 37.199219 Z M 26.457031 75.011719 L 24.859375 76.925781 C 54.375 99.902344 76.871094 65.113281 76.871094 65.113281 L 80.222656 65.113281 L 81.816406 63.039062 L 76.238281 63.039062 C 49.59375 94.789062 26.457031 75.011719 26.457031 75.011719 Z M 48.476562 38.480469 C 42.578125 38.320312 37.789062 49.652344 48.636719 51.402344 C 59.480469 53.15625 56.292969 48.210938 59.160156 43.90625 C 62.023438 39.597656 54.375 38.640625 48.476562 38.480469 Z M 124.082031 44.066406 C 124.082031 44.066406 117.695312 36.558594 112.125 46.457031 C 112.125 46.457031 118.664062 43.90625 119.140625 49.652344 C 119.621094 55.390625 123.097656 60.488281 122.640625 49.652344 C 122.480469 45.816406 124.25 45.65625 124.25 45.65625 Z M 99.933594 62.488281 C 99.933594 62.488281 116.046875 65.402344 116.589844 65.242188 L 116.589844 63.785156 C 116.589844 63.785156 107.167969 62.800781 100.480469 60.863281 Z M 40.382812 22.761719 C 40.382812 22.761719 39.960938 11.757812 41.367188 11.1875 L 40.808594 8.082031 C 40.808594 8.082031 37.277344 13.300781 38.6875 22.472656 Z "/>
</g>
</svg>
