<?xml version="1.0" encoding="UTF-8"?>
<svg xmlns="http://www.w3.org/2000/svg" xmlns:xlink="http://www.w3.org/1999/xlink" width="144pt" height="144pt" viewBox="0 0 144 144" version="1.1">
<g id="surface1">
<path style=" stroke:none;fill-rule:nonzero;fill:rgb(0.392157%,0.392157%,0.392157%);fill-opacity:1;" d="M 53.195312 134.523438 C 46.027344 133.261719 44.34375 131.71875 41.53125 128.621094 C 39.527344 126.429688 36.507812 123.136719 27.960938 117.582031 C 8.039062 104.625 3.902344 93.507812 9.546875 68.101562 L 9.726562 67.285156 L 10.261719 66.640625 C 10.910156 65.828125 25.753906 47.703125 44.242188 42.929688 L 46.78125 34.589844 C 46.917969 34.035156 51.359375 16.03125 63.25 11.941406 C 64.90625 11.363281 66.496094 11.195312 67.929688 11.449219 C 69.902344 11.796875 71.566406 12.878906 72.738281 14.613281 C 75.359375 18.394531 75.195312 24.898438 74.757812 29.109375 L 82.519531 30.316406 C 86.597656 25.921875 99.0625 13.800781 111.210938 15.4375 L 114.175781 15.835938 L 114.292969 18.832031 C 114.316406 19.679688 114.304688 27.222656 104.992188 41.140625 C 105.890625 42.746094 106.859375 45.132812 107.214844 48.121094 L 107.761719 53.238281 C 109.269531 54.671875 111.644531 57.390625 112.125 60.65625 C 117.707031 64.253906 121.542969 67.105469 123.605469 69.15625 C 124.777344 69.203125 126.445312 69.332031 128.066406 69.617188 C 136.117188 71.035156 136.246094 75.449219 135.921875 77.273438 C 135.527344 79.523438 135.160156 81.183594 134.890625 82.265625 C 136.136719 84.613281 137.988281 89.292969 136.300781 93.871094 C 134.972656 97.410156 131.996094 99.917969 127.382812 101.394531 C 125.363281 103.34375 119.949219 107.269531 110.339844 105.574219 C 100.085938 103.765625 84.371094 101.53125 84.355469 101.527344 C 83.210938 101.398438 72.4375 100.515625 69.824219 111.984375 L 67.050781 126.261719 C 67.335938 128.007812 67.082031 130.316406 65.476562 132.140625 C 63.171875 134.796875 59.171875 135.578125 53.195312 134.523438 Z "/>
<path style=" stroke:none;fill-rule:nonzero;fill:rgb(100%,100%,100%);fill-opacity:1;" d="M 13.023438 68.882812 C 13.023438 68.882812 28.636719 49.601562 47.0625 45.953125 L 50.191406 35.625 C 50.191406 35.625 54.214844 18.816406 64.40625 15.308594 C 74.574219 11.800781 70.722656 32.078125 70.722656 32.078125 L 83.898438 34.132812 C 83.898438 34.132812 98.015625 17.246094 110.722656 18.957031 C 110.722656 18.957031 111.011719 26.441406 100.714844 41.074219 C 100.714844 41.074219 103.144531 43.890625 103.660156 48.496094 C 104.1875 53.101562 104.367188 54.988281 104.367188 54.988281 C 104.367188 54.988281 109.285156 58.78125 108.605469 62.636719 C 108.605469 62.636719 120.78125 70.359375 121.960938 72.691406 C 121.960938 72.691406 133.136719 72.539062 132.410156 76.65625 C 131.683594 80.773438 131.0625 82.785156 131.0625 82.785156 C 131.0625 82.785156 139.070312 94.546875 125.417969 98.246094 C 125.417969 98.246094 121.25 103.878906 110.960938 102.0625 C 100.65625 100.246094 84.878906 97.984375 84.878906 97.984375 C 84.878906 97.984375 69.808594 96.117188 66.367188 111.171875 L 63.40625 126.316406 C 63.40625 126.316406 65.664062 133.09375 53.816406 131.003906 C 41.976562 128.917969 48.957031 126.976562 29.914062 114.570312 C 10.867188 102.195312 7.863281 92.113281 13.023438 68.882812 Z "/>
<path style=" stroke:none;fill-rule:nonzero;fill:rgb(0.392157%,0.392157%,0.392157%);fill-opacity:1;" d="M 37.570312 81.707031 C 30.425781 69.566406 41.652344 54.023438 41.652344 54.023438 L 37.878906 55.75 C 37.878906 55.75 28.8125 69.542969 35.675781 84.8125 C 42.539062 100.074219 61.207031 98.070312 65.984375 96.535156 C 70.765625 94.976562 73.28125 97.289062 73.28125 97.289062 L 76.398438 94.65625 L 66.757812 93.742188 C 56.746094 97.820312 44.707031 93.84375 37.570312 81.707031 Z M 61.519531 46.648438 L 67.246094 41.285156 C 67.8125 32.097656 68.050781 20.199219 64.28125 23.507812 C 60.507812 26.820312 58.015625 54.519531 58.015625 54.519531 L 48.820312 49.445312 L 48.457031 51.507812 L 60.226562 57.023438 Z M 98.164062 39.035156 C 98.164062 39.035156 105.589844 31.589844 106.710938 22.234375 C 106.710938 22.234375 94.964844 31.578125 93.652344 36.121094 Z M 82.289062 64.371094 C 93.570312 71.132812 95.753906 58.785156 95.753906 58.785156 C 89.546875 50.265625 82.289062 64.371094 82.289062 64.371094 Z M 102.820312 57.761719 L 106.019531 62.746094 C 106.027344 62.746094 107.65625 58.925781 102.820312 57.761719 Z M 121.191406 77.804688 C 122.941406 79.59375 127.5625 81.878906 127.210938 83.886719 C 127.210938 83.886719 129.707031 83.148438 130.582031 76.5 C 130.582031 76.5 128.359375 74.035156 120.25 74.679688 C 120.261719 74.6875 119.441406 76.011719 121.191406 77.804688 Z M 110.660156 97.222656 C 114.921875 98.894531 121.980469 96.777344 121.980469 96.777344 C 124.929688 97.296875 126.128906 95.683594 126.128906 95.683594 L 125.394531 89.484375 C 123.578125 99.789062 110.660156 97.222656 110.660156 97.222656 Z "/>
</g>
</svg>
