<?xml version="1.0" encoding="UTF-8"?>
<svg xmlns="http://www.w3.org/2000/svg" xmlns:xlink="http://www.w3.org/1999/xlink" width="144pt" height="144pt" viewBox="0 0 144 144" version="1.1">
<g id="surface1">
<path style=" stroke:none;fill-rule:nonzero;fill:rgb(0%,0%,0%);fill-opacity:1;" d="M 86.277344 144 C 75.734375 144 67.195312 137.898438 51.925781 126.1875 C 48.851562 125.132812 41.808594 123.039062 37.957031 123.039062 C 37.777344 123.039062 37.628906 123.039062 37.5 123.054688 L 37.015625 123.578125 C 37 123.609375 35.070312 125.785156 35.070312 128.992188 C 35.070312 134.324219 31.601562 136.753906 28.160156 136.753906 C 27.046875 136.753906 26.1875 136.5 25.941406 136.433594 L 25.363281 136.261719 L 24.847656 135.910156 C 23.765625 135.144531 -1.421875 117.191406 1.390625 86.457031 C 3.746094 60.683594 20.578125 51.089844 30.644531 51.089844 C 32.484375 51.089844 34.136719 51.402344 35.542969 52 C 38.175781 51.304688 43.3125 50.085938 47.238281 50.085938 C 48.007812 50.085938 49.78125 50.085938 51.460938 50.78125 C 53.234375 50.355469 56.03125 49.808594 58.109375 49.808594 C 58.222656 49.808594 58.320312 49.808594 58.410156 49.808594 C 60.308594 47.4375 63.636719 44.082031 68.40625 42.136719 C 63.949219 32.296875 61.125 16.683594 73.507812 6.933594 C 79.257812 2.386719 85.726562 0 92.230469 0 C 104.0625 0 113.402344 7.777344 115.675781 19.210938 C 117.550781 20.0625 119.792969 21.558594 120.667969 24.109375 C 121.230469 25.804688 121.402344 28.453125 118.875 31.511719 C 115.980469 35.011719 113.730469 36.949219 110.984375 37.90625 C 113.976562 41.859375 116.722656 46.101562 118.417969 50.175781 C 123.878906 63.398438 125.867188 86.464844 114.007812 96.941406 C 117.886719 96.6875 125.304688 94.308594 135.511719 82.480469 L 140.589844 76.585938 L 142.324219 84.191406 C 142.445312 84.65625 145.03125 96.472656 137.15625 106.328125 C 130.695312 114.425781 119.40625 118.644531 103.613281 118.851562 C 102.910156 119.367188 102.003906 120.035156 101.152344 120.640625 C 100.515625 127.257812 97.855469 143.804688 86.742188 144.007812 L 86.277344 144.007812 Z "/>
<path style=" stroke:none;fill-rule:nonzero;fill:rgb(100%,100%,100%);fill-opacity:1;" d="M 27.09375 132.679688 C 27.09375 132.679688 2.667969 115.636719 5.300781 86.824219 C 7.949219 57.996094 29.902344 52.015625 34.996094 56.234375 C 34.996094 56.234375 48.53125 52.195312 50.820312 55.007812 C 50.820312 55.007812 59.785156 52.546875 59.957031 54.484375 C 59.957031 54.484375 64.707031 45.875 74.195312 44.648438 C 74.195312 44.648438 60.308594 22.328125 75.945312 10.027344 C 91.589844 -2.273438 110.394531 5.273438 112.152344 22.148438 C 112.152344 22.148438 120.054688 23.90625 115.832031 29 C 111.613281 34.097656 109.691406 34.1875 104.949219 34.1875 C 104.949219 34.1875 99.671875 30.210938 100.367188 28.101562 C 101.070312 25.992188 100.539062 24.601562 98.617188 23.726562 C 96.6875 22.851562 93.523438 23.90625 93.523438 24.609375 C 93.523438 24.609375 109.683594 39.363281 114.777344 51.671875 C 119.875 63.980469 121.976562 87.332031 109.503906 95.425781 L 108.285156 99.820312 C 108.285156 99.820312 119.703125 106.84375 138.496094 85.039062 C 138.496094 85.039062 145.347656 114.925781 102.296875 114.925781 C 102.296875 114.925781 98.78125 117.558594 97.375 118.441406 C 97.375 118.441406 96.15625 139.878906 86.660156 140.058594 C 77.164062 140.238281 68.90625 134.257812 53.789062 122.664062 C 53.789062 122.664062 34.808594 116.003906 34.113281 120.902344 C 34.113281 120.902344 31.128906 124.070312 31.128906 128.984375 C 31.128906 133.898438 27.09375 132.679688 27.09375 132.679688 Z "/>
<path style=" stroke:none;fill-rule:nonzero;fill:rgb(0%,0%,0%);fill-opacity:1;" d="M 27.789062 86.996094 C 27.96875 73.992188 39.042969 69.953125 39.042969 69.953125 C 39.042969 69.953125 42.726562 68.019531 37.285156 58.707031 L 36.050781 59.753906 C 36.050781 59.753906 40.097656 66.246094 37.988281 67.660156 C 37.988281 67.660156 14.089844 82.25 33.417969 107.195312 L 33.589844 113.519531 L 35.699219 113.519531 L 35.355469 106.320312 C 35.355469 106.320312 27.617188 100 27.789062 86.996094 Z "/>
<path style=" stroke:none;fill-rule:nonzero;fill:rgb(0%,0%,0%);fill-opacity:1;" d="M 73.140625 59.230469 C 75.765625 66.082031 78.234375 59.230469 78.234375 55.890625 C 78.234375 52.554688 76.820312 48.6875 76.820312 48.6875 C 76.820312 48.6875 71.71875 43.945312 63.996094 55.539062 C 63.996094 55.539062 70.507812 52.375 73.140625 59.230469 Z "/>
<path style=" stroke:none;fill-rule:nonzero;fill:rgb(0%,0%,0%);fill-opacity:1;" d="M 47.65625 79.4375 C 48.53125 79.960938 56.449219 83.308594 56.628906 81.015625 C 56.792969 78.734375 56.082031 74.695312 58.902344 74.164062 C 58.902344 74.164062 52.589844 66.074219 48.007812 72.757812 C 43.4375 79.4375 46.78125 78.914062 47.65625 79.4375 Z "/>
<path style=" stroke:none;fill-rule:nonzero;fill:rgb(0%,0%,0%);fill-opacity:1;" d="M 53.285156 100.351562 L 50.476562 101.398438 C 50.476562 101.398438 39.929688 104.5625 39.929688 91.027344 L 37.816406 90.503906 C 37.816406 91.027344 36.050781 102.976562 48.710938 103.328125 L 50.992188 103.328125 "/>
<path style=" stroke:none;fill-rule:nonzero;fill:rgb(0%,0%,0%);fill-opacity:1;" d="M 82.070312 119.390625 L 81.261719 119.375 C 62.066406 118.703125 54.878906 108.449219 52.824219 104.539062 L 55.386719 99.597656 C 56.515625 98.414062 58.453125 97.472656 61.886719 97.472656 C 64.121094 97.472656 66.386719 98.511719 68.609375 100.589844 C 73.335938 104.980469 78.261719 107.222656 83.234375 107.203125 C 95.933594 107.171875 101.226562 98.558594 105.199219 92.761719 C 105.742188 91.976562 106.394531 91.4375 106.851562 90.988281 C 106.925781 91.589844 106.3125 97.921875 103.042969 104.578125 C 100.328125 110.109375 93.988281 119.390625 82.070312 119.390625 Z "/>
<path style=" stroke:none;fill-rule:nonzero;fill:rgb(0%,0%,0%);fill-opacity:1;" d="M 78.417969 123.367188 C 78.417969 123.367188 82.792969 135.3125 85.785156 132.148438 C 88.777344 128.984375 90.175781 123.015625 90.175781 123.015625 C 90.175781 123.015625 84.574219 126 78.417969 123.367188 Z "/>
<path style=" stroke:none;fill-rule:nonzero;fill:rgb(0%,0%,0%);fill-opacity:1;" d="M 64.347656 75.742188 C 64.347656 75.742188 74.539062 65.019531 78.578125 63.089844 C 82.621094 61.160156 83.160156 60.636719 82.457031 53.601562 C 81.746094 46.578125 68.921875 26.539062 73.3125 22.148438 L 75.078125 23.726562 C 75.078125 23.726562 72.101562 24.78125 80.527344 40.949219 C 88.949219 57.117188 84.027344 63.089844 82.628906 63.089844 C 81.230469 63.089844 69.445312 70.988281 66.460938 76.796875 Z "/>
<path style=" stroke:none;fill-rule:nonzero;fill:rgb(0%,0%,0%);fill-opacity:1;" d="M 109.878906 22.464844 C 109.878906 22.464844 106.117188 24.976562 103.394531 24.976562 C 103.394531 24.976562 97.839844 13.4375 91.65625 22.050781 C 90.757812 23.300781 89.5625 19.539062 89.5625 19.539062 C 89.5625 19.539062 99.828125 13.054688 103.597656 23.511719 L 109.035156 21.207031 Z "/>
</g>
</svg>
