<?xml version="1.0" encoding="UTF-8"?>
<svg xmlns="http://www.w3.org/2000/svg" xmlns:xlink="http://www.w3.org/1999/xlink" width="144pt" height="144pt" viewBox="0 0 144 144" version="1.1">
<g id="surface1">
<path style=" stroke:none;fill-rule:nonzero;fill:rgb(0.784314%,0%,0%);fill-opacity:1;" d="M 51.660156 133.199219 C 48.300781 131.976562 45.714844 130.015625 43.988281 127.355469 C 40.59375 122.179688 34.277344 112.523438 25.875 107.9375 L 25.285156 107.722656 C 23.230469 106.976562 17.78125 105.429688 12.0625 107.414062 L 6.695312 109.253906 L 7.039062 103.59375 L 7.210938 100.613281 L 3.449219 98.289062 L 0.429688 96.449219 L 2.070312 93.316406 C 2.246094 92.960938 5.988281 85.964844 13.925781 83.355469 L 11.96875 74.613281 L 11.390625 72.039062 L 13.585938 70.609375 L 20.871094 65.851562 L 19.980469 64.375 L 19.070312 62.890625 L 19.609375 61.222656 C 19.746094 60.808594 23.011719 51.242188 38.425781 45.1875 L 35.171875 44.367188 L 37.277344 39.542969 C 39.351562 36.496094 43.964844 32.203125 49.628906 32.320312 L 51.492188 29.511719 C 53.324219 26.84375 58.375 22.589844 64.917969 24.285156 C 65.753906 23.941406 66.71875 23.730469 67.734375 23.730469 C 71.703125 18.5 80.175781 8.726562 87.800781 9.621094 L 88.246094 9.679688 L 88.953125 9.886719 C 91.042969 10.648438 92.21875 12.269531 92.484375 14.730469 C 95.675781 13.414062 99.5 12.691406 103.347656 14.09375 L 105.5 14.875 L 105.8125 17.121094 C 105.988281 18.5 106.285156 25.53125 93.976562 33.246094 L 93.90625 33.535156 C 95.304688 34.660156 96.617188 35.976562 97.445312 37.40625 C 101.640625 39.3125 112.808594 45.613281 119.753906 60.699219 C 120.546875 61.183594 122.144531 62.054688 124.78125 63.011719 L 126.011719 63.445312 C 126.039062 63.457031 126.066406 63.464844 126.097656 63.476562 C 131.3125 65.375 140.488281 70.214844 142.957031 76.691406 C 143.964844 79.285156 143.824219 81.90625 142.570312 84.265625 L 141.121094 87.101562 C 138.207031 92.886719 134.722656 99.824219 129.398438 101.675781 C 129.175781 104.351562 128.320312 107.761719 125.699219 109.820312 C 124.054688 111.101562 121.167969 112.300781 116.726562 110.683594 C 108.519531 107.382812 97.183594 102.804688 98.503906 92.875 L 93.9375 90.195312 C 87.648438 90.488281 80.503906 92.335938 79.621094 94.75 C 78.953125 96.589844 77.898438 98.886719 76.730469 101.40625 C 74.476562 106.296875 70.277344 115.375 71.550781 118.371094 C 74.257812 124.742188 72.058594 130.363281 65.65625 133.417969 C 62.757812 134.765625 56.746094 135.050781 51.660156 133.199219 Z "/>
<path style=" stroke:none;fill-rule:nonzero;fill:rgb(100%,100%,100%);fill-opacity:1;" d="M 27.691406 104.613281 C 27.691406 104.613281 19.609375 100.78125 10.816406 103.828125 L 11.121094 98.582031 L 5.425781 95.070312 C 5.425781 95.070312 9.582031 87.117188 18.480469 86.238281 L 15.683594 73.785156 L 26.023438 67 L 23.214844 62.410156 C 23.214844 62.410156 26.117188 53.453125 41.671875 48.042969 C 41.671875 48.042969 46.945312 43.351562 40.40625 41.691406 C 40.40625 41.691406 45.777344 33.8125 52.542969 36.816406 C 52.542969 36.816406 59.457031 32.546875 54.59375 31.671875 C 54.59375 31.671875 58.746094 25.679688 65.257812 28.402344 C 65.257812 28.402344 67.277344 26.804688 69.363281 27.929688 C 69.363281 27.929688 80.144531 12.558594 87.339844 13.390625 C 87.339844 13.390625 90.578125 13.320312 87.191406 22.625 C 87.191406 22.625 94.933594 15.082031 102.039062 17.667969 C 102.039062 17.667969 102.878906 23.6875 90.632812 30.84375 L 89.609375 35.121094 C 89.609375 35.121094 94.359375 38.269531 94.519531 40.296875 C 94.519531 40.296875 108.828125 45.15625 116.730469 63.222656 C 116.730469 63.222656 118.90625 65.089844 124.8125 67.050781 C 130.714844 69.015625 142.628906 76.039062 139.210938 82.476562 C 135.792969 88.917969 131.621094 99.382812 125.597656 98.257812 C 125.597656 98.257812 126.960938 110.730469 117.605469 106.960938 C 108.25 103.191406 99.800781 99.40625 102.84375 91.039062 L 94.902344 86.359375 C 94.902344 86.359375 78.527344 86.652344 76.054688 93.445312 C 73.582031 100.234375 65.457031 113.71875 68.050781 119.84375 C 70.648438 125.96875 66.59375 128.769531 64.007812 129.976562 C 61.421875 131.183594 51.273438 131.597656 47.136719 125.273438 C 42.996094 118.949219 36.644531 109.484375 27.691406 104.613281 Z "/>
<path style=" stroke:none;fill-rule:nonzero;fill:rgb(0.784314%,0%,0%);fill-opacity:1;" d="M 48.421875 65.332031 C 41.972656 52.089844 56.910156 40.539062 56.910156 40.539062 C 47.179688 42.710938 35.738281 68.753906 35.738281 68.753906 L 37.585938 69.070312 L 44.914062 55.832031 C 44.914062 55.832031 41.046875 70.871094 60.300781 81.800781 C 79.558594 92.734375 89.660156 80.164062 89.660156 80.164062 L 88.644531 78.542969 C 73.070312 92.351562 54.855469 78.578125 48.421875 65.332031 Z M 125.511719 87.484375 C 128.523438 87.5625 131.355469 80.910156 126.582031 77.347656 C 126.582031 77.347656 119.339844 73.90625 119.046875 78.050781 C 118.753906 82.183594 122.503906 87.40625 125.511719 87.484375 Z M 74.296875 53.660156 C 77.585938 59.863281 86.65625 59.945312 87.632812 57.265625 C 87.632812 57.265625 83.289062 49.066406 76.085938 46.265625 C 76.085938 46.265625 71.007812 47.460938 74.296875 53.660156 Z M 87.8125 26.945312 L 85.773438 31.925781 L 100.351562 19.355469 Z M 85.339844 16.933594 C 82.816406 16.015625 73.933594 30.109375 73.933594 30.109375 L 81.578125 28.25 Z M 109.292969 88.914062 L 107.597656 90.800781 C 115.671875 99.097656 123.417969 98.882812 123.417969 98.882812 L 123.574219 96.792969 C 115.34375 95.589844 109.292969 88.914062 109.292969 88.914062 Z M 19.242188 98.847656 C 19.242188 98.847656 32.335938 66.789062 39.558594 53.339844 C 39.558594 53.339844 20.847656 86.5625 17.03125 98.042969 Z "/>
</g>
</svg>
