<?xml version="1.0" encoding="UTF-8"?>
<svg xmlns="http://www.w3.org/2000/svg" xmlns:xlink="http://www.w3.org/1999/xlink" width="144pt" height="144pt" viewBox="0 0 144 144" version="1.1">
<g id="surface1">
<path style=" stroke:none;fill-rule:nonzero;fill:rgb(0.784314%,0%,0%);fill-opacity:1;" d="M 64.726562 144 C 58.683594 144 52.792969 141.507812 48.574219 137.160156 C 46.074219 134.609375 43.933594 131.855469 41.914062 129.28125 C 38.464844 124.824219 35.480469 120.976562 32.546875 120.976562 L 31.28125 112.605469 C 32.34375 112.335938 33.707031 111.675781 34.019531 111.273438 C 33.863281 111.273438 33.722656 110.421875 33.578125 109.402344 C 32.785156 103.460938 31.28125 92.394531 38.816406 85.820312 C 43.964844 81.324219 47.914062 76.921875 49.554688 75.007812 C 50.039062 67.988281 52.507812 37.246094 59.894531 12.996094 C 62.519531 4.371094 64.636719 0 68.851562 0 L 70.808594 0 L 72.703125 1.816406 C 77.035156 6.859375 74.941406 28.886719 74.910156 29.097656 C 74.597656 31.164062 73.921875 34.597656 73.011719 39.09375 C 71.527344 46.515625 69.335938 57.261719 67.390625 69.472656 C 71.769531 55.652344 86.214844 13.796875 102.699219 4.886719 L 105.96875 3.121094 L 108.183594 6.128906 C 110.40625 9.203125 115.214844 23.261719 84.890625 76.109375 C 93.757812 81.613281 112.476562 94.550781 112.703125 105.707031 C 112.816406 110.871094 111.527344 114.835938 108.910156 117.527344 C 106.8125 119.675781 104.414062 120.402344 102.757812 120.648438 C 100.34375 122.75 94.894531 126.8125 89.007812 126.8125 C 88.976562 126.8125 88.945312 126.8125 88.910156 126.8125 C 85.574219 126.8125 82.585938 127.875 79.535156 135.34375 C 77.378906 140.671875 71.699219 144 64.726562 144 Z "/>
<path style=" stroke:none;fill-rule:nonzero;fill:rgb(100%,100%,100%);fill-opacity:1;" d="M 32.285156 116.734375 C 32.285156 116.734375 38.105469 115.34375 38.105469 111.835938 C 38.105469 108.347656 34.378906 95.300781 41.601562 89.007812 C 48.828125 82.714844 53.714844 76.675781 53.714844 76.675781 C 53.714844 76.675781 55.816406 41.015625 63.964844 14.230469 C 72.121094 -12.5625 71.648438 22.386719 70.726562 28.445312 C 69.785156 34.5 65.601562 52.433594 62.339844 74.328125 L 70.257812 74.558594 C 70.257812 74.558594 87.03125 18.1875 104.742188 8.632812 C 104.742188 8.632812 112.890625 19.820312 79.109375 77.589844 C 79.109375 77.589844 108.234375 94.371094 108.46875 105.78125 C 108.707031 117.191406 101.023438 116.496094 101.023438 116.496094 C 101.023438 116.496094 94.722656 122.796875 88.664062 122.554688 C 82.609375 122.332031 78.652344 126.273438 75.613281 133.734375 C 72.597656 141.1875 59.316406 142.113281 51.625 134.199219 C 43.933594 126.28125 39.730469 116.496094 32.285156 116.734375 Z "/>
<path style=" stroke:none;fill-rule:nonzero;fill:rgb(0.784314%,0%,0%);fill-opacity:1;" d="M 71.214844 120.609375 C 68.769531 122.429688 66.90625 124.929688 66.296875 128.378906 C 64.898438 136.300781 49.523438 116.265625 49.523438 116.265625 L 46.964844 116.96875 C 46.964844 116.96875 58.839844 133.503906 64.898438 131.871094 C 70.960938 130.242188 65.371094 129.542969 69.097656 124.882812 C 69.816406 123.984375 70.953125 123.148438 72.3125 122.398438 C 77.917969 119.355469 77.542969 115.867188 71.214844 120.609375 Z M 77.714844 90.644531 C 73.285156 90.40625 71.886719 94.828125 71.886719 94.828125 C 71.886719 94.828125 71.65625 98.554688 75.382812 99.496094 C 79.109375 100.425781 81.6875 98.554688 82.839844 97.15625 C 84.007812 95.761719 82.144531 90.878906 77.714844 90.644531 Z M 97.515625 102.757812 C 96.121094 104.621094 100.074219 106.007812 100.074219 106.007812 C 102.878906 111.835938 104.503906 106.730469 104.503906 106.730469 C 104.503906 106.730469 105.191406 104.15625 105.191406 102.984375 C 105.191406 101.816406 98.914062 100.894531 97.515625 102.757812 Z M 99.601562 110.210938 C 99.601562 110.210938 98.539062 114.476562 89.375 114.207031 C 88.796875 114.191406 88.59375 115.359375 87.960938 115.34375 C 87.960938 115.34375 97.730469 114.402344 97.730469 115.574219 L 99.210938 115.671875 L 98.964844 113.699219 L 100.777344 110.90625 Z M 82.226562 57.785156 C 73.359375 66.164062 75.851562 75.734375 75.851562 75.734375 L 77.476562 76.421875 C 83.0625 69.28125 82.226562 57.785156 82.226562 57.785156 Z "/>
</g>
</svg>
